<?xml version="1.0" standalone="no"?>
<!DOCTYPE svg PUBLIC "-//W3C//DTD SVG 20010904//EN"
 "http://www.w3.org/TR/2001/REC-SVG-20010904/DTD/svg10.dtd">
<svg version="1.0" xmlns="http://www.w3.org/2000/svg"
 width="13.000000pt" height="13.000000pt" viewBox="0 0 626.000000 626.000000"
 preserveAspectRatio="xMidYMid meet">
<metadata>
Created by potrace 1.15, written by Peter Selinger 2001-2017
</metadata>
<g transform="translate(0.000000,626.000000) scale(0.100000,-0.100000)"
fill="#000000" stroke="none">
<path d="M2820 6244 c-307 -34 -534 -86 -775 -176 -909 -340 -1613 -1079
-1901 -1993 -167 -531 -188 -1130 -58 -1680 53 -223 190 -586 271 -717 13 -21
23 -40 23 -44 0 -11 85 -149 158 -259 218 -323 517 -623 827 -829 55 -37 105
-70 110 -74 53 -39 243 -140 390 -207 214 -98 508 -186 736 -220 389 -59 669
-59 1057 0 151 23 457 102 537 139 17 8 41 17 55 21 38 10 290 126 332 152 21
13 41 23 44 23 11 0 199 116 289 178 561 386 999 979 1201 1627 208 666 189
1391 -55 2050 -32 88 -81 196 -143 320 -185 368 -492 747 -808 999 -152 120
-156 124 -290 210 -308 198 -596 321 -956 410 -302 75 -738 105 -1044 70z m23
-1029 c43 -20 220 -193 1013 -987 880 -882 963 -967 978 -1012 20 -63 20 -109
0 -172 -15 -45 -98 -130 -978 -1012 -1044 -1046 -1007 -1012 -1118 -1012 -98
0 -130 23 -396 291 -211 212 -245 250 -262 296 -25 68 -25 108 0 177 19 50 73
106 667 700 l646 646 -646 646 c-593 593 -648 651 -667 701 -25 68 -25 108 0
177 18 47 50 83 263 296 184 185 254 249 292 266 68 32 140 32 208 -1z"/>
</g>
</svg>
