<?xml version="1.0" standalone="no"?>
<!DOCTYPE svg PUBLIC "-//W3C//DTD SVG 20010904//EN"
 "http://www.w3.org/TR/2001/REC-SVG-20010904/DTD/svg10.dtd">
<svg version="1.0" xmlns="http://www.w3.org/2000/svg"
 width="20.000000pt" height="20.000000pt" viewBox="0 0 626.000000 626.000000"
 preserveAspectRatio="xMidYMid meet">
<metadata>
Created by potrace 1.15, written by Peter Selinger 2001-2017
</metadata>
<g transform="translate(0.000000,626.000000) scale(0.100000,-0.100000)"
fill="#000000" stroke="none">
<path d="M1930 6254 c-14 -2 -65 -9 -115 -15 -272 -32 -581 -138 -789 -269
-35 -22 -66 -40 -70 -40 -4 0 -35 -21 -69 -48 -34 -26 -73 -55 -87 -64 -44
-28 -189 -164 -266 -250 -214 -236 -390 -565 -468 -873 -80 -317 -82 -689 -5
-1000 88 -351 239 -638 475 -901 108 -121 253 -249 362 -320 28 -19 76 -50
105 -68 29 -19 109 -62 177 -95 288 -138 570 -201 902 -201 405 0 791 115
1137 339 l64 41 51 -47 c28 -25 106 -100 173 -165 l123 -119 -29 -57 c-83
-167 -103 -212 -99 -222 2 -7 424 -433 938 -947 l935 -935 61 5 c88 8 228 44
308 79 187 81 311 198 406 383 58 115 110 297 110 389 0 28 -102 133 -939 970
-581 581 -944 937 -952 934 -8 -3 -63 -35 -124 -72 l-109 -67 -111 109 c-60
59 -143 139 -183 178 l-73 69 42 65 c225 348 339 732 339 1139 0 335 -63 613
-204 907 -121 250 -281 463 -481 641 -379 336 -838 516 -1345 528 -91 2 -176
2 -190 -1z m365 -488 c479 -65 915 -354 1157 -766 214 -364 279 -791 182
-1190 -129 -526 -514 -956 -1013 -1132 -196 -69 -331 -92 -541 -92 -165 0
-246 9 -390 45 -631 156 -1108 688 -1195 1333 -109 808 397 1561 1188 1767
178 47 423 60 612 35z"/>
<path d="M2990 4983 c-32 -37 -399 -429 -546 -583 -39 -41 -138 -147 -220
-235 -303 -324 -357 -380 -366 -377 -10 3 -101 72 -238 182 -52 42 -107 85
-122 95 -14 11 -150 118 -301 238 -152 119 -280 217 -286 217 -11 0 -141 -182
-141 -199 0 -5 33 -45 73 -88 40 -43 147 -157 238 -253 90 -96 223 -238 294
-315 71 -77 132 -142 135 -145 3 -3 62 -66 130 -140 219 -235 269 -286 277
-275 63 87 265 367 288 400 17 24 80 112 140 195 61 84 128 179 150 210 22 31
119 166 215 300 228 315 241 333 294 410 25 36 73 102 106 148 l60 83 -62 84
c-35 46 -68 84 -74 85 -7 0 -27 -17 -44 -37z"/>
</g>
</svg>
