<?xml version="1.0" standalone="no"?>
<!DOCTYPE svg PUBLIC "-//W3C//DTD SVG 20010904//EN"
 "http://www.w3.org/TR/2001/REC-SVG-20010904/DTD/svg10.dtd">
<svg version="1.0" xmlns="http://www.w3.org/2000/svg"
 width="50.000000pt" height="50.000000pt" viewBox="0 0 626.000000 626.000000"
 preserveAspectRatio="xMidYMid meet">
<metadata>
Created by potrace 1.15, written by Peter Selinger 2001-2017
</metadata>
<g transform="translate(0.000000,626.000000) scale(0.100000,-0.100000)"
fill="#000000" stroke="none">
<path d="M2830 6245 c-458 -50 -830 -165 -1205 -372 -262 -145 -483 -311 -696
-523 -199 -198 -305 -331 -464 -580 -42 -66 -137 -242 -177 -328 -226 -488
-328 -1086 -273 -1603 58 -551 226 -1020 523 -1459 176 -261 388 -491 647
-701 163 -131 451 -309 632 -390 37 -17 82 -36 98 -44 56 -25 170 -67 265 -96
633 -198 1265 -198 1900 0 280 87 536 211 800 389 340 229 647 539 867 877
637 975 682 2227 117 3236 -75 135 -207 330 -303 448 -73 92 -284 311 -366
382 -279 242 -609 443 -930 566 -454 174 -984 247 -1435 198z m-285 -1935
c319 -319 583 -579 587 -578 4 2 268 263 586 581 318 317 585 577 593 577 19
0 579 -562 579 -581 0 -8 -261 -275 -580 -593 -319 -319 -579 -583 -578 -588
2 -4 263 -268 581 -586 317 -317 577 -584 577 -592 0 -19 -560 -580 -579 -580
-8 0 -275 260 -593 577 -318 318 -582 578 -588 578 -5 0 -270 -260 -588 -577
-317 -318 -584 -578 -592 -578 -20 0 -580 561 -580 580 0 8 261 276 580 595
319 319 580 583 580 587 0 3 -261 267 -580 585 -319 318 -580 585 -580 592 0
20 560 581 580 581 8 0 276 -261 595 -580z"/>
</g>
</svg>
