<?xml version="1.0" standalone="no"?>
<!DOCTYPE svg PUBLIC "-//W3C//DTD SVG 20010904//EN"
 "http://www.w3.org/TR/2001/REC-SVG-20010904/DTD/svg10.dtd">
<svg version="1.0" xmlns="http://www.w3.org/2000/svg"
 width="753.000000pt" height="720.000000pt" viewBox="0 0 753.000000 720.000000"
 preserveAspectRatio="xMidYMid meet">
<metadata>
Created by potrace 1.15, written by Peter Selinger 2001-2017
</metadata>
<g transform="translate(0.000000,720.000000) scale(0.100000,-0.100000)"
fill="#000000" stroke="none">
<path d="M3754 7147 c-14 -26 -22 -53 -18 -59 5 -7 2 -8 -6 -3 -10 6 -12 4 -7
-9 4 -10 3 -15 -3 -11 -12 7 -203 -372 -195 -386 4 -5 1 -8 -7 -7 -8 2 -13 -6
-12 -19 0 -12 -3 -20 -7 -17 -12 7 -201 -375 -193 -388 5 -7 2 -8 -6 -3 -10 6
-12 4 -7 -9 4 -10 3 -15 -3 -11 -12 7 -193 -352 -185 -366 4 -5 1 -8 -7 -7 -8
2 -13 -6 -12 -19 0 -12 -3 -20 -7 -17 -12 7 -201 -375 -193 -388 5 -7 2 -8 -6
-3 -10 6 -12 4 -7 -9 4 -10 3 -15 -3 -11 -12 8 -213 -392 -204 -407 5 -7 2 -8
-6 -3 -10 6 -12 4 -7 -8 4 -10 2 -16 -6 -14 -7 1 -12 -8 -11 -20 0 -12 -3 -20
-7 -17 -5 2 -15 -8 -23 -24 -15 -30 -21 -31 -406 -78 -30 -4 -50 -9 -43 -11
10 -4 169 15 396 46 32 4 54 5 50 1 -4 -4 -555 -78 -1223 -165 -668 -86 -1252
-162 -1298 -168 -73 -9 -82 -13 -82 -31 0 -14 59 -80 170 -191 94 -94 174
-169 178 -167 4 1 7 -4 7 -10 1 -7 6 -12 13 -11 7 2 11 -1 9 -6 -2 -9 1441
-1461 1453 -1461 3 0 -321 327 -720 728 l-725 727 733 -730 c402 -401 732
-731 732 -733 0 -2 -4 -1 -9 3 -6 3 -8 -10 -6 -32 4 -31 3 -34 -4 -13 -5 14
-9 20 -10 14 -1 -6 -19 -110 -41 -229 -22 -120 -39 -223 -37 -229 2 -6 9 25
17 67 7 43 15 75 18 73 2 -3 -15 -109 -39 -235 -23 -127 -45 -229 -47 -226 -2
2 3 45 13 95 9 51 14 95 11 98 -3 3 -6 1 -6 -5 0 -6 -14 -84 -30 -173 -17 -90
-29 -168 -27 -174 2 -5 9 25 17 67 7 43 15 75 18 73 2 -3 -8 -74 -24 -158 -18
-97 -30 -143 -34 -128 -3 15 -23 -67 -49 -209 -24 -128 -41 -234 -38 -237 2
-2 10 30 17 71 7 41 15 73 18 71 2 -3 -20 -134 -49 -291 -29 -158 -55 -282
-57 -277 -1 5 9 74 23 152 15 78 24 144 21 148 -3 3 -6 1 -6 -5 0 -6 -18 -109
-40 -228 -22 -120 -39 -223 -37 -229 2 -6 9 25 17 67 7 43 15 75 17 73 3 -3
-14 -108 -38 -235 -24 -127 -45 -229 -47 -226 -2 2 3 45 13 95 9 51 14 95 11
98 -3 3 -6 1 -6 -5 0 -5 -11 -70 -25 -144 -30 -162 -30 -156 -5 -169 15 -8 29
-6 60 10 22 11 40 23 40 25 0 3 -18 -4 -40 -15 -21 -11 -43 -20 -47 -20 -4 1
14 12 40 26 26 14 53 22 59 18 6 -4 8 -3 4 4 -8 14 1379 716 1396 706 7 -4 8
-3 4 4 -7 12 704 377 735 377 9 1 34 9 56 19 38 17 42 17 73 1 18 -9 30 -12
26 -7 -3 5 -19 15 -35 21 -25 11 -35 9 -71 -9 -23 -12 -40 -17 -37 -12 4 4 24
16 45 26 l39 18 252 -137 c138 -75 251 -139 251 -142 0 -4 -42 18 -247 129
-40 22 -73 38 -73 35 0 -3 118 -69 263 -147 144 -79 265 -145 270 -147 4 -2 7
-2 7 1 0 2 -47 30 -105 61 -58 31 -105 58 -105 61 0 2 15 -3 33 -12 29 -15
1628 -886 1719 -937 21 -11 40 -18 44 -15 3 4 -11 111 -31 240 -20 128 -63
403 -96 611 -57 366 -75 512 -39 317 38 -203 17 -45 -55 415 -41 264 -75 486
-75 494 0 8 -3 12 -6 8 -3 -3 6 -83 21 -177 14 -94 25 -176 23 -181 -2 -6 -32
172 -67 395 -35 224 -62 409 -59 411 3 3 11 -36 18 -87 8 -51 15 -87 18 -80 2
6 -4 56 -12 110 -9 55 -16 104 -16 109 0 6 199 199 443 429 243 231 652 618
908 861 256 243 480 454 498 469 17 14 29 29 26 32 -3 3 -45 -32 -93 -79 l-88
-84 93 94 c51 52 93 98 93 102 0 5 -10 9 -22 9 -55 1 -2562 410 -2572 420 -8
8 -5 9 14 2 14 -5 52 -12 85 -15 l60 -6 -50 10 c-27 6 -60 12 -73 15 -19 4
-40 40 -114 194 -52 107 -95 187 -101 183 -6 -4 -7 -1 -2 7 10 16 -65 171 -78
163 -6 -4 -7 -1 -2 7 9 15 -84 212 -97 204 -4 -3 -5 1 -3 9 7 17 -172 393
-186 389 -6 -1 -7 3 -3 9 8 14 -76 190 -88 183 -4 -3 -5 1 -3 8 7 18 -365 799
-376 792 -5 -3 -6 1 -3 9 3 8 -16 56 -42 108 -25 52 -44 81 -41 64 l6 -30 -11
27 c-17 41 -46 32 -74 -25z"/>
</g>
</svg>
