<?xml version="1.0" standalone="no"?>
<!DOCTYPE svg PUBLIC "-//W3C//DTD SVG 20010904//EN"
 "http://www.w3.org/TR/2001/REC-SVG-20010904/DTD/svg10.dtd">
<svg version="1.0" xmlns="http://www.w3.org/2000/svg"
 width="35.000000pt" height="35.000000pt" viewBox="0 0 512.000000 512.000000"
 preserveAspectRatio="xMidYMid meet">
<metadata>
Created by potrace 1.15, written by Peter Selinger 2001-2017
</metadata>
<g transform="translate(0.000000,512.000000) scale(0.100000,-0.100000)"
fill="#000000" stroke="none">
<path d="M2225 4393 l-80 -228 -109 -37 c-60 -20 -156 -60 -213 -88 l-104 -51
-222 106 -221 106 -178 -179 -179 -178 106 -221 106 -222 -51 -104 c-28 -57
-68 -153 -88 -213 l-37 -109 -228 -80 -227 -80 0 -255 0 -255 227 -80 228 -80
37 -109 c20 -60 60 -156 88 -213 l51 -104 -106 -222 -106 -221 179 -178 178
-179 221 106 222 106 104 -51 c57 -28 153 -68 213 -88 l109 -37 80 -228 80
-227 255 0 255 0 80 227 80 228 109 37 c60 20 156 60 213 88 l104 51 222 -106
221 -106 178 179 179 178 -106 221 -106 222 51 104 c28 57 68 153 88 213 l37
109 228 80 227 80 0 255 0 255 -227 80 -228 80 -37 109 c-20 60 -60 156 -88
213 l-51 104 106 222 106 221 -179 178 -178 179 -221 -106 -222 -106 -104 51
c-57 28 -153 68 -213 88 l-109 37 -80 228 -80 227 -255 0 -255 0 -80 -227z
m545 -1043 c290 -82 498 -292 582 -588 31 -109 31 -295 0 -404 -85 -298 -291
-506 -587 -590 -114 -32 -296 -32 -410 0 -296 84 -502 292 -587 590 -31 109
-31 295 0 404 92 323 339 549 664 607 81 15 252 5 338 -19z"/>
</g>
</svg>
