<svg width="458" height="369" xmlns="http://www.w3.org/2000/svg" preserveAspectRatio="xMidYMid meet">
 <metadata>Created by potrace 1.15, written by Peter Selinger 2001-2017</metadata>

 <g>
  <title>background</title>
  <rect fill="none" id="canvas_background" height="402" width="582" y="-1" x="-1"/>
 </g>
 <g>
  <title>Layer 1</title>
  <g id="svg_1" fill="#000000" transform="translate(0,369) scale(0.10000000149011612,-0.10000000149011612) ">
   <path id="svg_2" d="m2195,3193c-186,-22 -262,-39 -397,-89c-69,-26 -172,-88 -197,-117c-7,-9 -18,-17 -23,-17c-6,0 -27,-13 -48,-30c-21,-16 -41,-30 -44,-30c-4,0 -39,-33 -79,-73c-39,-40 -91,-88 -115,-107c-23,-19 -64,-66 -89,-105c-26,-38 -56,-80 -67,-93c-53,-60 -170,-302 -203,-417c-21,-76 -44,-246 -44,-330c0,-214 15,-387 37,-422c8,-12 14,-33 14,-45c0,-36 56,-184 107,-283c25,-49 49,-92 52,-95c3,-3 11,-12 16,-21c55,-90 116,-168 186,-241c46,-49 88,-88 93,-88c8,0 59,-40 106,-84c14,-13 45,-34 70,-47c25,-13 47,-26 50,-29c10,-11 198,-100 210,-100c6,0 24,-6 38,-14c51,-28 178,-64 247,-71c39,-4 75,-11 80,-15c38,-28 353,-14 483,20c40,11 85,20 100,20c15,0 51,11 80,25c30,14 59,25 65,25c6,0 18,6 26,14c9,8 43,24 76,35c32,12 63,28 68,36c4,8 14,15 21,15c13,0 118,78 124,92c2,5 9,8 15,8c7,0 23,14 37,30c14,17 33,30 42,30c10,0 18,4 18,8c0,5 16,26 37,47l36,37l-31,14c-18,7 -32,15 -32,18c0,2 21,28 46,58c117,136 220,333 263,501c20,76 41,331 41,491c0,76 3,93 20,111c18,19 19,28 10,127c-9,101 -44,231 -71,264c-6,8 -8,14 -5,14c15,0 -61,125 -104,171c-46,49 -78,65 -65,32c4,-10 9,-34 12,-53c3,-19 22,-66 41,-105c54,-108 71,-167 98,-330c42,-261 30,-467 -41,-675c-94,-276 -246,-497 -445,-647c-108,-83 -373,-214 -485,-241c-181,-45 -346,-53 -470,-23c-27,7 -88,21 -135,32c-85,19 -123,31 -192,62c-21,10 -45,17 -55,17c-20,0 -77,32 -102,58c-9,8 -34,27 -56,41c-62,40 -147,105 -180,138c-119,117 -175,183 -175,205c0,14 -12,35 -26,49c-28,26 -88,148 -79,158c4,3 11,-1 16,-10c47,-86 319,-360 460,-464c80,-59 203,-120 289,-144c122,-34 310,-25 310,15c0,18 -57,33 -174,45c-139,14 -168,22 -289,78c-222,104 -354,224 -504,458c-39,61 -100,210 -139,337c-21,70 -24,97 -24,250c0,286 20,396 105,571c47,98 124,194 249,313c64,61 80,71 95,62c25,-13 69,21 73,58c2,22 18,36 82,74c85,52 231,111 312,128c34,7 80,8 134,2c76,-8 84,-7 101,11c17,19 28,20 186,14l168,-6l-60,25c-33,14 -91,34 -129,44c-70,20 -92,30 -64,30c9,0 21,6 28,14c9,12 7,17 -9,28c-12,7 -21,16 -21,19c0,10 137,-1 220,-17c41,-8 100,-19 130,-25c30,-6 75,-16 100,-22c25,-6 51,-10 58,-9c6,2 12,-2 12,-8c0,-5 7,-10 15,-10c12,0 186,-107 230,-142c114,-89 177,-143 255,-222c117,-118 145,-126 101,-29c-11,23 -17,43 -15,46c2,2 -42,51 -99,109c-70,72 -125,118 -177,148c-41,24 -85,52 -98,61c-12,10 -45,23 -72,30c-29,7 -50,19 -50,26c0,9 -8,11 -25,7c-26,-6 -36,-3 -177,67c-43,21 -99,41 -125,44c-27,4 -75,13 -108,21c-55,13 -297,17 -380,7z"/>
   <path id="svg_3" d="m1406,1974c-3,-9 -6,-16 -6,-17c0,-1 15,-2 33,-2l32,0l3,-233c1,-146 -1,-240 -8,-252c-10,-19 -9,-19 19,-2c23,13 27,20 20,34c-5,10 -8,113 -7,235l3,218l42,-1c38,-1 41,1 32,18c-8,15 -22,18 -83,18c-58,0 -75,-3 -80,-16z"/>
   <path id="svg_4" d="m3046,1971c-5,-7 -9,-96 -10,-197c-1,-162 1,-184 15,-184c13,0 15,10 11,55c-5,56 7,85 34,85c18,0 64,-81 64,-113c0,-15 4,-27 8,-27c5,0 15,-19 21,-42c14,-44 28,-68 41,-68c11,0 -62,184 -108,272c-2,4 19,32 47,61c28,30 51,57 51,60c0,4 -14,7 -31,7c-24,0 -30,-4 -25,-16c7,-18 -83,-119 -95,-107c-5,5 -10,58 -11,118c-2,67 -6,105 -12,96z"/>
   <path id="svg_5" d="m1685,1868c-31,-18 -43,-38 -56,-93c-22,-97 18,-175 90,-175c62,0 130,71 91,95c-5,3 -10,0 -10,-8c0,-42 -94,-68 -127,-34c-9,9 -15,18 -12,20c2,2 39,27 82,56c42,28 77,59 77,67c0,9 -15,31 -34,50c-35,35 -66,42 -101,22z"/>
   <path id="svg_6" d="m1918,1865c-15,-9 -31,-27 -34,-41c-9,-33 13,-54 89,-84c69,-27 86,-51 57,-80c-28,-28 -69,-36 -99,-19c-34,19 -36,63 -3,67c28,4 24,26 -5,30c-24,4 -53,-31 -53,-64c0,-12 12,-33 26,-48c39,-38 105,-37 145,3c31,31 37,66 17,94c-7,9 -44,30 -81,47c-50,22 -67,35 -65,48c5,26 60,37 97,19c34,-17 47,-9 28,17c-18,24 -85,30 -119,11z"/>
   <path id="svg_7" d="m2709,1755l3,-125l-45,0c-29,0 -53,7 -67,18c-23,18 -23,19 -7,67c21,59 23,149 5,142c-8,-2 -12,-19 -10,-45c2,-23 -3,-54 -12,-71c-42,-81 -4,-137 97,-143l62,-3l0,143c0,120 -2,142 -15,142c-13,0 -14,-19 -11,-125z"/>
   <path id="svg_8" d="m2838,1864c-28,-15 -45,-54 -33,-74c4,-6 40,-26 79,-44c81,-37 96,-56 66,-86c-28,-28 -69,-36 -99,-19c-34,19 -36,63 -3,67c26,4 25,25 -2,30c-22,5 -56,-25 -56,-49c0,-31 21,-66 47,-78c62,-28 138,4 148,64c7,41 -10,59 -89,95c-50,22 -67,34 -64,47c5,27 60,38 97,20c29,-15 31,-14 31,4c0,36 -73,50 -122,23z"/>
  </g>
  <metadata transform="matrix(5.3859026860664585,0,0,5.3859026860664585,0,0) ">Created by potrace 1.15, written by Peter Selinger 2001-2017</metadata>
  <g stroke="null" id="svg_17">
   <g id="svg_16" fill="#000000" transform="matrix(0.0806844381253346,0,0,-0.12866997068989358,198.0469814070268,279.768684451593) ">
    <path stroke="null" id="svg_15" d="m604.025554,879.549094c-10,-11 -15,-54 -16,-137c-4,-151 4,-198 39,-227c31,-27 43,-29 52,-7c4,11 -5,24 -26,41c-30,24 -31,26 -31,110l0,86l40,-6c37,-5 40,-3 40,18c0,20 -6,24 -37,27l-38,3l-5,54c-4,47 -7,52 -18,38z"/>
   </g>
  </g>
  <g stroke="null" id="svg_20">
   <g id="svg_19" fill="#000000" transform="matrix(0.0806844381253346,0,0,-0.12866997068989358,198.0469814070268,279.768684451593) ">
    <path stroke="null" id="svg_18" d="m156.103889,868.641284c-10,-11 -15,-54 -16,-137c-4,-151 4,-198 39,-227c31,-27 43,-29 52,-7c4,11 -5,24 -26,41c-30,24 -31,26 -31,110l0,86l40,-6c37,-5 40,-3 40,18c0,20 -6,24 -37,27l-38,3l-5,54c-4,47 -7,52 -18,38z"/>
   </g>
  </g>
 </g>
</svg>