<?xml version="1.0" standalone="no"?>
<!DOCTYPE svg PUBLIC "-//W3C//DTD SVG 20010904//EN"
 "http://www.w3.org/TR/2001/REC-SVG-20010904/DTD/svg10.dtd">
<svg version="1.0" xmlns="http://www.w3.org/2000/svg"
 width="512.000000pt" height="512.000000pt" viewBox="0 0 512.000000 512.000000"
 preserveAspectRatio="xMidYMid meet">
<metadata>
Created by potrace 1.15, written by Peter Selinger 2001-2017
</metadata>
<g transform="translate(0.000000,512.000000) scale(0.100000,-0.100000)"
fill="#000000" stroke="none">
<path d="M2310 5114 c-611 -73 -1109 -305 -1534 -714 -401 -387 -658 -884
-753 -1455 -26 -158 -26 -613 0 -768 46 -273 119 -502 237 -743 131 -266 280
-475 490 -685 385 -385 860 -627 1422 -725 147 -25 531 -31 699 -9 854 108
1574 605 1963 1356 122 236 205 480 253 749 25 133 27 168 27 430 1 231 -2
306 -17 395 -48 287 -123 519 -248 768 -127 251 -272 451 -478 658 -393 392
-858 630 -1421 725 -91 16 -552 28 -640 18z m610 -264 c1008 -167 1778 -947
1937 -1960 24 -160 24 -500 0 -660 -71 -454 -257 -856 -553 -1195 l-68 -78
-14 54 c-49 203 -169 458 -291 619 -133 177 -309 338 -493 452 l-57 35 36 53
c20 30 55 94 79 144 231 494 19 1097 -471 1343 -146 73 -286 105 -465 105
-361 -1 -687 -185 -872 -494 -200 -336 -190 -754 26 -1092 20 -32 36 -59 34
-60 -2 -1 -55 -36 -118 -78 -355 -235 -593 -565 -706 -977 l-29 -104 -43 49
c-329 369 -514 756 -589 1234 -27 172 -24 500 6 675 129 762 597 1395 1276
1725 266 129 507 199 800 230 131 14 433 4 575 -20z m-174 -1360 c271 -69 487
-281 566 -556 29 -102 31 -285 4 -384 -61 -225 -220 -416 -431 -516 -412 -195
-907 16 -1059 452 -68 196 -55 397 39 589 100 205 285 358 505 414 104 28 270
28 376 1z m522 -1599 c195 -114 390 -294 500 -460 126 -189 215 -419 245 -636
l6 -40 -77 -57 c-321 -235 -697 -386 -1092 -439 -123 -16 -448 -17 -570 0
-404 54 -754 191 -1078 425 -94 68 -94 68 -67 198 91 438 345 788 727 1004 33
19 64 34 69 34 4 0 42 -22 83 -48 230 -151 542 -197 818 -121 86 24 256 104
313 147 22 17 44 31 48 31 5 1 39 -17 75 -38z"/>
</g>
</svg>
