<svg width="372" height="322" xmlns="http://www.w3.org/2000/svg" preserveAspectRatio="xMidYMid meet">
 <metadata>Created by potrace 1.15, written by Peter Selinger 2001-2017</metadata>

 <g>
  <title>background</title>
  <rect fill="none" id="canvas_background" height="402" width="582" y="-1" x="-1"/>
 </g>
 <g>
  <title>Layer 1</title>
  <g id="svg_1" fill="#000000" transform="translate(0,322) scale(0.10000000149011612,-0.10000000149011612) ">
   <path id="svg_2" d="m1298,2994c-21,-13 -39,-30 -39,-37c-1,-6 -2,-23 -3,-37c-1,-20 -16,-33 -81,-71c-44,-25 -92,-49 -107,-52c-14,-4 -39,-18 -55,-31c-16,-14 -41,-28 -56,-31c-15,-4 -36,-18 -46,-31c-10,-13 -24,-24 -31,-24c-16,0 -90,-67 -83,-74c4,-3 11,-2 17,4c7,5 17,5 26,0c12,-8 13,-13 3,-30c-7,-11 -13,-27 -13,-35c0,-8 -6,-15 -14,-15c-8,0 -12,9 -11,25c2,14 1,25 -1,25c-12,0 -144,-65 -144,-71c0,-4 -25,-33 -56,-65c-31,-33 -67,-70 -80,-84c-13,-14 -24,-33 -24,-43c0,-10 -15,-42 -33,-70c-73,-113 -98,-168 -106,-235c-5,-37 -5,-74 0,-82c6,-10 8,-3 9,23c0,26 4,37 15,37c8,0 19,10 26,21c9,17 8,20 -2,14c-9,-6 -10,-2 -6,16c4,13 7,37 7,52c0,16 4,26 10,22c6,-4 7,1 3,11c-4,11 -3,15 5,10c7,-4 12,5 14,26c2,23 10,36 28,45c14,7 19,13 12,13c-7,0 -10,5 -7,10c9,15 25,12 25,-5c0,-8 5,-15 11,-15c6,0 17,-7 25,-15c23,-22 32,-18 26,11c-3,18 -10,24 -22,21c-12,-3 -22,4 -29,20c-15,32 -14,33 9,33c13,0 20,7 20,18c0,11 9,27 20,37c20,18 21,18 34,0c15,-21 11,-40 -12,-67c-8,-10 -10,-18 -5,-18c6,0 9,-13 7,-30c-2,-16 -1,-30 2,-30c13,0 43,47 44,68c0,31 46,101 73,112c12,4 55,42 95,84c41,42 77,76 80,76c6,0 28,17 79,60c7,5 17,10 22,10c6,0 21,14 33,31c20,27 27,30 61,25c21,-3 42,-8 46,-10c4,-3 14,6 22,20c16,30 77,64 114,64c19,0 29,-8 39,-30c7,-17 16,-27 20,-23c5,5 5,-2 2,-14c-10,-31 8,-29 33,3c11,15 27,24 35,21c8,-3 23,7 35,24c21,28 51,39 51,19c0,-5 7,-10 15,-10c8,0 16,-4 16,-10c5,-38 15,-48 45,-42l27,5l-22,-22c-22,-22 -27,-46 -11,-56c17,-10 49,32 44,57c-5,20 -4,21 8,7c7,-9 15,-16 18,-16c3,1 14,-4 25,-10c15,-9 17,-14 8,-25c-12,-14 -5,-34 12,-33c6,0 19,6 30,12c20,12 19,12 -2,13c-24,0 -31,14 -13,25c6,3 10,3 10,-2c0,-4 12,-14 27,-20c29,-14 45,-3 40,28c-4,26 23,49 59,49c18,0 36,-4 39,-10c3,-5 19,-10 35,-10c18,0 41,-11 61,-29c18,-17 44,-31 58,-33c15,-2 25,-9 23,-16c-1,-7 19,-22 45,-34c53,-23 65,-35 58,-59c-8,-23 49,-47 70,-29c12,10 18,10 31,-1c23,-19 44,-64 44,-94c0,-20 -6,-27 -30,-31c-26,-6 -30,-11 -30,-40c0,-33 21,-47 35,-24c11,19 25,10 25,-16c0,-18 5,-25 18,-23c49,5 55,1 49,-37c-5,-31 -2,-41 21,-65c15,-16 35,-29 44,-29c9,0 18,-9 20,-22c5,-32 28,-35 28,-3c0,22 4,26 23,23c19,-3 22,-10 25,-56c3,-45 5,-51 20,-43c43,22 122,-11 122,-51c0,-10 9,-27 21,-39c19,-19 19,-22 5,-44c-14,-21 -14,-24 0,-36c12,-10 20,-10 35,-1c36,23 40,6 8,-39c-11,-16 -17,-34 -13,-41c11,-17 12,-60 2,-80c-10,-20 15,-38 42,-31c13,4 18,-2 18,-21c0,-15 -4,-29 -9,-32c-5,-3 -5,-13 -1,-22c12,-25 14,-260 2,-267c-6,-3 -10,-21 -10,-40c0,-24 -5,-35 -19,-40c-16,-5 -19,-12 -14,-40c4,-23 2,-35 -6,-35c-6,0 -11,-7 -11,-15c0,-8 -4,-15 -10,-15c-5,0 -10,-11 -10,-24c0,-37 -18,-76 -35,-76c-9,0 -15,-9 -15,-25c0,-28 -8,-32 -24,-10c-10,12 -14,12 -36,-5c-24,-18 -24,-20 -7,-32c15,-11 17,-21 12,-51c-7,-37 -19,-48 -28,-24c-3,6 -6,-6 -6,-27c-1,-40 -21,-65 -53,-66c-12,0 -18,8 -18,23c-1,21 -1,22 -15,3c-8,-11 -15,-32 -15,-48c0,-18 -5,-28 -15,-28c-9,0 -21,-11 -27,-25c-6,-14 -16,-25 -21,-25c-6,0 -18,-7 -27,-15c-9,-8 -25,-16 -36,-18c-30,-4 -44,-16 -44,-38c0,-10 -4,-19 -9,-19c-5,0 -11,-9 -14,-20c-3,-12 -14,-20 -25,-20c-12,0 -24,-5 -27,-10c-4,-6 -10,-8 -15,-5c-4,2 -24,-6 -44,-20c-20,-14 -46,-25 -57,-25c-24,0 -88,-26 -109,-44c-8,-8 -36,-17 -62,-20c-26,-4 -50,-11 -53,-17c-4,-5 -13,-9 -22,-9c-21,0 -42,-29 -43,-57c0,-21 11,-28 35,-23c28,6 79,1 106,-10c23,-10 46,-10 107,0c42,6 86,16 97,20c11,5 52,19 90,31c39,12 90,32 115,45c25,13 52,24 62,24c9,0 20,4 23,10c3,5 16,10 29,10c13,0 31,12 44,30c13,17 30,30 38,30c9,0 40,25 69,56c44,47 58,56 79,52c23,-5 26,-2 26,23c0,22 5,29 20,29c14,0 18,5 13,17c-5,14 -1,15 32,10c29,-5 35,-3 27,5c-17,17 -15,25 8,31c11,3 20,14 20,25c0,11 16,32 36,47c29,22 35,32 31,54c-3,14 0,45 6,68c9,34 16,43 33,43c28,0 39,15 40,60c3,82 20,142 50,180c7,8 14,29 17,45c7,41 17,65 28,65c12,0 11,37 -1,45c-15,10 -12,35 5,35c8,0 15,9 15,20c0,11 7,20 15,20c9,0 15,9 15,25c0,17 8,29 25,37c35,16 35,69 0,88c-17,9 -25,22 -24,39c0,32 -20,191 -26,200c-2,4 -5,38 -6,77c-1,38 -8,78 -15,89c-20,29 -17,44 11,57c31,14 32,26 3,37c-13,5 -22,11 -20,15c1,3 2,13 2,21c0,14 -2,14 -23,0c-30,-19 -37,-12 -37,42c0,23 -3,43 -7,43c-11,0 -49,81 -45,97c2,7 -1,13 -6,13c-14,0 -56,68 -77,123c-10,26 -24,47 -31,47c-25,0 -123,120 -139,170c-4,11 -18,23 -33,26c-43,10 -101,46 -108,66c-3,10 -11,18 -18,18c-7,0 -26,12 -42,27c-16,15 -37,26 -46,25c-10,-2 -18,2 -18,7c0,14 -41,14 -77,0c-24,-9 -31,-7 -50,15c-12,14 -27,26 -33,26c-5,0 -10,5 -10,10c0,6 -26,10 -59,10c-49,0 -62,4 -87,27c-25,23 -38,27 -101,29c-82,3 -90,6 -104,42l-11,27l-17,-22c-19,-23 -76,-29 -133,-13c-15,5 -30,5 -33,0c-3,-5 -19,-4 -37,2c-24,9 -41,7 -77,-5c-25,-9 -57,-16 -71,-16c-14,0 -47,-4 -75,-9c-57,-12 -68,-8 -60,19c4,10 2,19 -3,19c-5,0 -12,9 -15,20c-7,26 -33,24 -79,-6z"/>
   <path id="svg_3" d="m2450,1809c-11,-8 -12,-12 -2,-16c17,-7 17,-274 0,-291c-9,-9 -3,-12 30,-12c39,0 42,2 32,19c-26,49 4,157 47,167c31,8 47,-8 39,-39c-6,-25 -47,-44 -66,-32c-17,10 -11,-3 25,-59c37,-59 51,-68 78,-54c22,11 22,27 -1,21c-22,-5 -63,68 -42,75c23,8 50,42 50,62c0,11 -9,29 -21,41c-26,26 -64,19 -96,-17l-23,-25l0,85c0,75 -2,86 -17,86c-10,0 -25,-5 -33,-11z"/>
   <path id="svg_4" d="m850,1766l0,-39l25,27c16,18 33,26 48,24c21,-3 22,-6 22,-128c0,-69 -4,-133 -9,-142c-7,-16 -3,-18 38,-18c45,0 61,12 31,24c-21,8 -22,254 -2,262c21,8 67,-14 67,-31c0,-8 5,-15 10,-15c6,0 10,17 10,38l0,37l-120,0l-120,0l0,-39z"/>
   <path id="svg_5" d="m1185,1701c-36,-15 -58,-49 -63,-99c-3,-41 0,-52 22,-79c14,-17 38,-33 53,-36c34,-6 103,20 103,39c0,12 -5,12 -30,-1c-40,-21 -57,-19 -85,10c-32,31 -34,91 -4,129c32,41 79,29 79,-19c0,-30 -19,-45 -59,-45c-26,0 -32,-3 -23,-12c14,-14 64,-13 91,2c23,12 36,49 27,78c-11,34 -67,50 -111,33z"/>
   <path id="svg_6" d="m1390,1697c-29,-14 -39,-60 -18,-84c7,-9 32,-24 55,-34c46,-19 56,-46 28,-69c-24,-20 -65,3 -65,36c0,28 -17,29 -34,1c-8,-13 -6,-21 10,-38c37,-37 125,-24 139,21c9,30 -8,52 -62,80c-51,27 -62,54 -30,74c23,15 52,-4 51,-33c-1,-32 30,-22 34,10c5,41 -57,62 -108,36z"/>
   <path id="svg_7" d="m2035,1701c-38,-16 -58,-50 -63,-104c-3,-42 0,-57 17,-78c27,-35 54,-41 95,-20c33,17 35,17 50,0c13,-16 20,-17 41,-7c29,13 33,26 8,24c-16,-1 -18,9 -18,89l0,90l-35,7c-46,9 -70,9 -95,-1z"/>
   <path id="svg_8" d="m2272,1698c-24,-12 -38,-48 -29,-73c4,-8 28,-25 55,-39c58,-29 68,-47 41,-72c-27,-24 -69,-5 -69,31c0,30 -15,33 -30,6c-7,-15 -5,-24 8,-41c36,-44 142,-18 142,35c0,23 -41,65 -64,65c-7,0 -22,9 -34,20c-18,17 -20,25 -12,40c19,36 81,13 66,-25c-8,-22 21,-19 33,4c22,40 -54,76 -107,49z"/>
  </g>
  <metadata transform="matrix(0.3366090275167153,0,0,0.3366090275167153,0,0) ">Created by potrace 1.15, written by Peter Selinger 2001-2017</metadata>
  <metadata transform="matrix(3.7775950893410624,0,0,3.7775950893410624,0,0) ">Created by potrace 1.15, written by Peter Selinger 2001-2017</metadata>
  <g stroke="null" id="svg_24">
   <g id="svg_20" fill="#000000" transform="matrix(0.033327885884186705,0,0,-0.037087913381159125,0.8112181434494374,229.19592847817256) ">
    <path stroke="null" id="svg_21" d="m4965.095671,2241.837564c0,-5 -13,-11 -30,-14c-24,-5 -30,-12 -30,-32c0,-14 -4,-25 -9,-25c-5,0 -12,-11 -15,-25c-4,-14 -13,-25 -21,-25c-8,0 -15,-7 -15,-15c0,-8 -9,-15 -19,-15c-10,0 -21,-7 -25,-15c-3,-8 -10,-15 -16,-15c-12,0 -40,-24 -40,-35c0,-4 6,-13 14,-21c17,-16 46,-19 46,-4c0,6 16,10 35,10c24,0 35,-5 35,-15c0,-8 -7,-15 -15,-15c-11,0 -15,-11 -15,-40c0,-29 4,-40 15,-40c11,0 15,-11 15,-40c0,-29 -4,-40 -15,-40c-11,0 -15,-11 -15,-40c0,-29 4,-40 15,-40c11,0 15,-11 15,-40c0,-29 -4,-40 -15,-40c-11,0 -15,-11 -15,-40c0,-27 4,-40 14,-40c8,0 16,-16 20,-40c6,-38 8,-40 41,-40c29,0 36,-4 41,-25c7,-27 24,-34 24,-10c0,10 10,15 30,15c17,0 30,5 30,10c0,6 11,10 25,10c15,0 25,6 25,14c0,8 4,16 9,18c4,1 12,13 15,26c7,20 4,22 -33,22c-23,0 -41,-4 -41,-10c0,-5 -13,-10 -30,-10c-16,0 -30,5 -30,10c0,6 5,10 10,10c6,0 10,18 10,40c0,22 -4,40 -10,40c-5,0 -10,18 -10,40c0,22 5,40 10,40c6,0 10,18 10,40c0,22 -4,40 -10,40c-5,0 -10,18 -10,40c0,22 5,40 10,40c6,0 10,18 10,40c0,22 -4,40 -10,40c-5,0 -10,7 -10,15c0,10 10,15 30,15c17,0 30,-4 30,-10c0,-5 15,-10 34,-10c34,0 46,13 46,50c0,10 6,20 12,22c7,3 -10,5 -37,6c-28,1 -51,7 -53,12c-2,6 -12,10 -23,10c-14,0 -19,7 -19,25c0,14 -4,25 -10,25c-5,0 -10,18 -10,40c0,22 5,40 11,40c6,0 4,7 -5,15c-16,17 -26,19 -26,6z"/>
    <path stroke="null" id="svg_22" d="m5655.095671,2241.837564c0,-5 -8,-12 -17,-14c-17,-4 -17,-5 0,-6c21,-1 23,-21 2,-21c-9,0 -15,-9 -15,-25c0,-34 -20,-32 -21,3c-2,27 -2,27 -6,2c-3,-14 -10,-28 -17,-32c-8,-6 -8,-8 2,-8c17,0 15,-38 -2,-56c-17,-16 -56,-19 -56,-4c0,6 -6,5 -14,-2c-10,-10 -11,-15 -2,-21c8,-6 8,-10 -1,-14c-18,-7 -16,-33 2,-33c8,0 15,-4 15,-10c0,-5 11,-12 25,-16c21,-5 25,-12 25,-45c0,-28 -4,-39 -15,-39c-11,0 -15,-11 -15,-40c0,-29 4,-40 15,-40c11,0 15,-11 15,-40c0,-29 -4,-40 -15,-40c-11,0 -15,-11 -15,-40c0,-29 4,-40 15,-40c12,0 15,-16 15,-80c0,-64 3,-80 15,-80c8,0 15,-4 15,-10c0,-5 18,-10 40,-10c22,0 40,5 40,10c0,6 18,10 40,10c29,0 40,4 40,15c0,8 5,15 10,15c6,0 10,7 10,15c0,8 7,15 15,15c9,0 15,9 15,25c0,20 -5,25 -25,25c-16,0 -25,-6 -25,-15c0,-11 -11,-15 -40,-15l-40,0l-2,43c-3,81 -3,390 0,374c3,-12 11,-14 40,-10c20,3 39,10 40,15c2,4 15,8 28,8c13,0 24,5 24,11c0,6 7,17 15,25c22,23 7,44 -31,44c-19,0 -34,-4 -34,-10c0,-5 -18,-10 -39,-10l-39,0l-7,68c-4,37 -6,72 -5,77c4,20 0,35 -10,35c-5,0 -10,-4 -10,-9z"/>
    <path stroke="null" id="svg_23" d="m6135.095671,2105.837564c0,-9 -9,-15 -25,-15c-14,0 -25,-4 -25,-9c0,-5 -12,-12 -26,-15c-34,-9 -54,-29 -54,-54c0,-13 -9,-22 -26,-26c-15,-4 -33,-13 -40,-21c-16,-16 -19,-65 -4,-65c6,0 10,-4 10,-10c0,-5 -11,-10 -25,-10c-21,0 -25,-5 -25,-30c0,-20 5,-30 15,-30c11,0 15,-11 15,-40c0,-29 -4,-40 -15,-40c-11,0 -15,-11 -15,-40c0,-29 4,-40 15,-40c11,0 15,-11 15,-40c0,-36 3,-40 25,-40c14,0 25,-4 25,-10c0,-5 7,-10 15,-10c10,0 15,-10 15,-30c0,-28 3,-30 36,-30c35,0 64,-18 64,-39c0,-6 7,-11 15,-11c8,0 15,7 15,15c0,8 7,15 15,15c8,0 15,5 15,10c0,6 18,10 40,10c29,0 40,4 40,15c0,8 5,15 10,15c6,0 10,7 10,15c0,8 7,15 15,15c8,0 15,5 15,10c0,6 7,10 15,10c11,0 15,-11 15,-40l0,-40l40,0c36,0 40,-2 40,-25c0,-14 5,-25 10,-25c6,0 10,7 10,15c0,10 10,15 30,15c17,0 30,5 30,10c0,6 11,10 25,10c16,0 25,6 25,15c0,8 7,15 15,15c9,0 15,9 15,25c0,23 -4,25 -40,25c-22,0 -40,-4 -40,-10c0,-5 -7,-10 -15,-10c-11,0 -15,12 -15,50c0,38 -4,50 -15,50c-11,0 -15,11 -15,40c0,29 4,40 15,40c11,0 15,11 15,40c0,29 -4,40 -15,40c-11,0 -15,11 -15,40c0,29 4,40 15,40c11,0 15,11 15,40c0,29 -4,40 -15,40c-10,0 -15,10 -15,30c0,20 5,30 15,30c8,0 15,4 15,9c0,5 8,12 18,14c16,4 16,5 0,6c-10,0 -18,6 -18,11c0,6 -11,10 -25,10c-14,0 -25,-4 -25,-10c0,-5 -18,-10 -40,-10c-22,0 -40,5 -40,10c0,6 -7,10 -15,10c-8,0 -15,7 -15,15c0,9 -9,15 -25,15c-16,0 -25,-6 -25,-15c0,-11 -11,-15 -40,-15c-29,0 -40,4 -40,15c0,8 -7,15 -15,15c-8,0 -15,-7 -15,-15zm160,-280c0,-111 -4,-165 -11,-165c-14,0 -39,-25 -39,-39c0,-7 -27,-11 -70,-11c-56,0 -70,3 -70,15c0,8 -4,15 -10,15c-6,0 -10,28 -10,65c0,51 -3,65 -15,65c-8,0 -15,7 -15,15c0,8 7,15 15,15c12,0 15,14 15,65c0,37 4,65 10,65c6,0 10,7 10,15c0,8 7,15 15,15c8,0 15,7 15,15c0,12 16,15 80,15l80,0l0,-165z"/>
   </g>
  </g>
 </g>
</svg>