<?xml version="1.0" standalone="no"?>
<!DOCTYPE svg PUBLIC "-//W3C//DTD SVG 20010904//EN"
 "http://www.w3.org/TR/2001/REC-SVG-20010904/DTD/svg10.dtd">
<svg version="1.0" xmlns="http://www.w3.org/2000/svg"
 width="80.000000pt" height="20.000000pt" viewBox="0 0 1000.000000 300.000000"
 preserveAspectRatio="xMidYMid meet">
<metadata>
Created by potrace 1.15, written by Peter Selinger 2001-2017
</metadata>
<g transform="translate(0.000000,300.000000) scale(0.100000,-0.100000)"
fill="#000000" stroke="none">
<path d="M8155 2820 c-223 -40 -387 -114 -571 -256 -344 -266 -532 -728 -473
-1161 74 -547 467 -971 1009 -1089 119 -26 381 -26 500 0 255 55 463 168 645
351 55 55 124 136 153 180 292 439 295 993 9 1422 -169 254 -405 431 -689 517
-187 57 -397 70 -583 36z m477 -214 c350 -90 637 -356 750 -696 45 -134 53
-186 52 -355 -1 -138 -5 -173 -27 -257 -101 -381 -393 -673 -775 -775 -86 -23
-116 -26 -262 -26 -146 0 -176 3 -262 26 -463 123 -783 517 -805 992 -14 307
101 602 317 815 159 157 374 265 596 300 103 16 307 4 416 -24z"/>
<path d="M5135 2806 c-401 -67 -719 -286 -919 -631 -146 -254 -200 -583 -141
-870 30 -148 94 -311 163 -419 329 -514 928 -727 1497 -534 365 124 659 418
783 783 155 458 50 938 -283 1294 -50 53 -173 153 -251 203 -108 69 -270 132
-419 163 -107 23 -328 28 -430 11z m348 -201 c458 -69 823 -434 892 -892 19
-124 19 -202 0 -326 -77 -515 -534 -907 -1055 -907 -340 0 -674 173 -871 452
-263 374 -264 861 0 1235 233 331 630 499 1034 438z"/>
<path d="M2055 2786 c-401 -67 -719 -286 -919 -631 -146 -254 -200 -583 -141
-870 30 -148 94 -311 163 -419 329 -514 928 -727 1497 -534 365 124 659 418
783 783 155 458 50 938 -283 1294 -50 53 -173 153 -251 203 -108 69 -270 132
-419 163 -107 23 -328 28 -430 11z m348 -201 c458 -69 823 -434 892 -892 19
-124 19 -202 0 -326 -77 -515 -534 -907 -1055 -907 -340 0 -674 173 -871 452
-263 374 -264 861 0 1235 233 331 630 499 1034 438z"/>
</g>
</svg>
